<svg xmlns="http://www.w3.org/2000/svg" version="1.1" xmlns:xlink="http://www.w3.org/1999/xlink" width="512" height="512" x="0" y="0" viewBox="0 0 468 468" style="enable-background:new 0 0 512 512" xml:space="preserve" class=""><g><path d="M119.167 71.603c26.26-35.095 66.309-56.134 119.083-62.567a97.475 97.475 0 0 1 6.627-5.996C185.98.212 125.966 19.733 89.598 68.383c-13.844 18.521-25.68 59.318-34.228 117.982-2.707 18.572 9.697 38.056 27.842 43.468-3.054-52.306 2.312-113.266 35.955-158.23zM73.611 427.999h303.221V468H73.611z" fill="#176546" opacity="1" data-original="#176546" style="--darkreader-inline-fill: #176546;" data-darkreader-inline-fill="" class=""></path><path d="M405.075 171.981c-30.607-43.586-69.609-79.794-104.284-119.944a10.923 10.923 0 0 1-1.091-12.778L323.058.472c-44.738-4.584-70.932 25.684-71.218 26.023a10.953 10.953 0 0 1-7.208 3.822c-148.31 15.8-150.311 165.031-128.514 280.867 7.369 40.206 2.011 73.338-4.262 94.945H339.22c6.962-47.354-10.937-93.209-46.85-123.295-30.094-25.21-45.643-52.483-48.425-92.288-32.534-24.757-28.043-67.648-27.825-69.543.689-6 6.11-10.321 12.125-9.619 6.008.687 10.32 6.108 9.632 12.109-4.412 41.248 29.018 62.525 65.885 61.389a11.034 11.034 0 0 1 6.195 1.692l55.386 35.04c5.967 3.774 13.444 3.924 19.513.388 12.85-7.488 28.163-19.081 28.145-31.789-.01-6.459-3.291-11.631-7.926-18.232zm-91.642-60.672c-4.164 3.329-8.293 3.243-12.385-.259l-8.286-8.63a8.74 8.74 0 0 1 .26-12.369c3.493-3.343 9.037-3.229 12.385.259l8.286 8.63a8.74 8.74 0 0 1-.26 12.369z" fill="#176546" opacity="1" data-original="#176546" style="--darkreader-inline-fill: #176546;" data-darkreader-inline-fill="" class=""></path></g></svg>